<mxfile host="app.diagrams.net" modified="2023-05-28T20:16:26.417Z" agent="Mozilla/5.0 (Windows NT 10.0; Win64; x64) AppleWebKit/537.36 (KHTML, like Gecko) Chrome/113.0.0.0 Safari/537.36" etag="PgbA-RghdP1QJoLmzCeX" version="21.3.5" type="google">
  <diagram name="Страница 1" id="Z9cWBWHthtN6pLb-dr0Z">
    <mxGraphModel dx="1991" dy="929" grid="0" gridSize="10" guides="1" tooltips="1" connect="1" arrows="1" fold="1" page="0" pageScale="1" pageWidth="827" pageHeight="1169" math="0" shadow="0">
      <root>
        <mxCell id="0" />
        <mxCell id="1" parent="0" />
        <mxCell id="hx7XMOlVAWknz2wz_Oiw-1" value="просмотр информации" style="ellipse;whiteSpace=wrap;html=1;fontSize=14;fontStyle=1;labelBorderColor=none;labelBackgroundColor=none;" vertex="1" parent="1">
          <mxGeometry x="142.5" width="247.5" height="70" as="geometry" />
        </mxCell>
        <mxCell id="hx7XMOlVAWknz2wz_Oiw-2" value="выбор посудного набора" style="ellipse;whiteSpace=wrap;html=1;fontSize=14;fontStyle=1;labelBorderColor=none;labelBackgroundColor=none;" vertex="1" parent="1">
          <mxGeometry x="140" y="90" width="250" height="70" as="geometry" />
        </mxCell>
        <mxCell id="hx7XMOlVAWknz2wz_Oiw-3" value="оставить заявку на обратный звонок" style="ellipse;whiteSpace=wrap;html=1;fillColor=none;strokeColor=default;shadow=0;fontSize=14;fontStyle=1;labelBorderColor=none;labelBackgroundColor=none;" vertex="1" parent="1">
          <mxGeometry x="150" y="180" width="240" height="70" as="geometry" />
        </mxCell>
        <mxCell id="hx7XMOlVAWknz2wz_Oiw-4" style="edgeStyle=orthogonalEdgeStyle;rounded=0;orthogonalLoop=1;jettySize=auto;html=1;exitX=0.5;exitY=1;exitDx=0;exitDy=0;" edge="1" parent="1" source="hx7XMOlVAWknz2wz_Oiw-2" target="hx7XMOlVAWknz2wz_Oiw-2">
          <mxGeometry relative="1" as="geometry" />
        </mxCell>
        <mxCell id="hx7XMOlVAWknz2wz_Oiw-12" style="edgeStyle=orthogonalEdgeStyle;rounded=0;orthogonalLoop=1;jettySize=auto;html=1;exitX=1;exitY=0.58;exitDx=6;exitDy=0;exitPerimeter=0;entryX=-0.035;entryY=0.616;entryDx=0;entryDy=0;entryPerimeter=0;" edge="1" parent="1" source="hx7XMOlVAWknz2wz_Oiw-7" target="hx7XMOlVAWknz2wz_Oiw-1">
          <mxGeometry relative="1" as="geometry">
            <Array as="points">
              <mxPoint x="90" y="123" />
              <mxPoint x="90" y="43" />
            </Array>
          </mxGeometry>
        </mxCell>
        <mxCell id="hx7XMOlVAWknz2wz_Oiw-13" style="edgeStyle=orthogonalEdgeStyle;rounded=0;orthogonalLoop=1;jettySize=auto;html=1;exitX=1;exitY=0.58;exitDx=6;exitDy=0;exitPerimeter=0;entryX=0;entryY=0.5;entryDx=0;entryDy=0;" edge="1" parent="1" source="hx7XMOlVAWknz2wz_Oiw-7" target="hx7XMOlVAWknz2wz_Oiw-3">
          <mxGeometry relative="1" as="geometry" />
        </mxCell>
        <mxCell id="hx7XMOlVAWknz2wz_Oiw-19" style="edgeStyle=orthogonalEdgeStyle;rounded=0;orthogonalLoop=1;jettySize=auto;html=1;entryX=0.5;entryY=0;entryDx=0;entryDy=-10;entryPerimeter=0;" edge="1" parent="1" target="hx7XMOlVAWknz2wz_Oiw-17">
          <mxGeometry relative="1" as="geometry">
            <mxPoint x="-30" y="250" as="targetPoint" />
            <mxPoint x="15" y="210" as="sourcePoint" />
          </mxGeometry>
        </mxCell>
        <mxCell id="hx7XMOlVAWknz2wz_Oiw-7" value="Посетитель&lt;br&gt;" style="shape=umlActor;verticalLabelPosition=bottom;verticalAlign=top;html=1;outlineConnect=0;points=[[0.5,1,0,0,43],[1,0.58,0,6,0]];" vertex="1" parent="1">
          <mxGeometry y="88" width="30" height="60" as="geometry" />
        </mxCell>
        <mxCell id="hx7XMOlVAWknz2wz_Oiw-16" style="edgeStyle=orthogonalEdgeStyle;rounded=0;orthogonalLoop=1;jettySize=auto;html=1;exitX=1;exitY=0.58;exitDx=6;exitDy=0;exitPerimeter=0;entryX=0;entryY=0.5;entryDx=0;entryDy=0;" edge="1" parent="1" source="hx7XMOlVAWknz2wz_Oiw-7" target="hx7XMOlVAWknz2wz_Oiw-2">
          <mxGeometry relative="1" as="geometry">
            <mxPoint x="46" y="165" as="sourcePoint" />
            <mxPoint x="110" y="190" as="targetPoint" />
            <Array as="points">
              <mxPoint x="36" y="125" />
            </Array>
          </mxGeometry>
        </mxCell>
        <mxCell id="hx7XMOlVAWknz2wz_Oiw-22" style="edgeStyle=orthogonalEdgeStyle;rounded=0;orthogonalLoop=1;jettySize=auto;html=1;exitX=1;exitY=0.5;exitDx=9;exitDy=0;exitPerimeter=0;entryX=0;entryY=0.5;entryDx=0;entryDy=0;" edge="1" parent="1" source="hx7XMOlVAWknz2wz_Oiw-17" target="hx7XMOlVAWknz2wz_Oiw-20">
          <mxGeometry relative="1" as="geometry" />
        </mxCell>
        <mxCell id="hx7XMOlVAWknz2wz_Oiw-23" style="edgeStyle=orthogonalEdgeStyle;rounded=0;orthogonalLoop=1;jettySize=auto;html=1;exitX=1;exitY=0.5;exitDx=9;exitDy=0;exitPerimeter=0;entryX=0;entryY=0.5;entryDx=0;entryDy=0;" edge="1" parent="1" source="hx7XMOlVAWknz2wz_Oiw-17" target="hx7XMOlVAWknz2wz_Oiw-21">
          <mxGeometry relative="1" as="geometry" />
        </mxCell>
        <mxCell id="hx7XMOlVAWknz2wz_Oiw-17" value="Покупатель" style="shape=umlActor;verticalLabelPosition=bottom;verticalAlign=top;html=1;outlineConnect=0;points=[[0.5,0,0,0,-10],[1,0.5,0,9,0]];" vertex="1" parent="1">
          <mxGeometry y="315" width="30" height="60" as="geometry" />
        </mxCell>
        <mxCell id="hx7XMOlVAWknz2wz_Oiw-20" value="заказ доставки посудного набора" style="ellipse;whiteSpace=wrap;html=1;fontSize=14;fontStyle=1;labelBorderColor=none;labelBackgroundColor=none;" vertex="1" parent="1">
          <mxGeometry x="140" y="310" width="250" height="70" as="geometry" />
        </mxCell>
        <mxCell id="hx7XMOlVAWknz2wz_Oiw-21" value="оформление самовывоза заказа" style="ellipse;whiteSpace=wrap;html=1;fontSize=14;fontStyle=1;labelBorderColor=none;labelBackgroundColor=none;" vertex="1" parent="1">
          <mxGeometry x="150" y="410" width="240" height="70" as="geometry" />
        </mxCell>
        <mxCell id="hx7XMOlVAWknz2wz_Oiw-30" style="edgeStyle=orthogonalEdgeStyle;rounded=0;orthogonalLoop=1;jettySize=auto;html=1;exitX=1;exitY=0.5;exitDx=9;exitDy=0;exitPerimeter=0;entryX=0;entryY=0.5;entryDx=0;entryDy=0;" edge="1" parent="1" source="hx7XMOlVAWknz2wz_Oiw-32" target="hx7XMOlVAWknz2wz_Oiw-33">
          <mxGeometry relative="1" as="geometry">
            <Array as="points">
              <mxPoint x="540" y="250" />
              <mxPoint x="540" y="165" />
            </Array>
          </mxGeometry>
        </mxCell>
        <mxCell id="hx7XMOlVAWknz2wz_Oiw-31" style="edgeStyle=orthogonalEdgeStyle;rounded=0;orthogonalLoop=1;jettySize=auto;html=1;exitX=1;exitY=0.5;exitDx=9;exitDy=0;exitPerimeter=0;entryX=0;entryY=0.5;entryDx=0;entryDy=0;" edge="1" parent="1" source="hx7XMOlVAWknz2wz_Oiw-32" target="hx7XMOlVAWknz2wz_Oiw-34">
          <mxGeometry relative="1" as="geometry">
            <Array as="points">
              <mxPoint x="590" y="250" />
            </Array>
          </mxGeometry>
        </mxCell>
        <mxCell id="hx7XMOlVAWknz2wz_Oiw-36" style="edgeStyle=orthogonalEdgeStyle;rounded=0;orthogonalLoop=1;jettySize=auto;html=1;exitX=1;exitY=0.5;exitDx=9;exitDy=0;exitPerimeter=0;entryX=0;entryY=0.5;entryDx=0;entryDy=0;" edge="1" parent="1" source="hx7XMOlVAWknz2wz_Oiw-32" target="hx7XMOlVAWknz2wz_Oiw-35">
          <mxGeometry relative="1" as="geometry">
            <Array as="points">
              <mxPoint x="540" y="250" />
              <mxPoint x="540" y="340" />
              <mxPoint x="590" y="340" />
            </Array>
          </mxGeometry>
        </mxCell>
        <mxCell id="hx7XMOlVAWknz2wz_Oiw-32" value="Администратор" style="shape=umlActor;verticalLabelPosition=bottom;verticalAlign=top;html=1;outlineConnect=0;points=[[0.5,0,0,0,-10],[1,0.5,0,9,0]];" vertex="1" parent="1">
          <mxGeometry x="463" y="220" width="30" height="60" as="geometry" />
        </mxCell>
        <mxCell id="hx7XMOlVAWknz2wz_Oiw-33" value="редактирование сайта" style="ellipse;whiteSpace=wrap;html=1;fontSize=14;fontStyle=1;labelBorderColor=none;labelBackgroundColor=none;" vertex="1" parent="1">
          <mxGeometry x="590" y="130" width="260" height="70" as="geometry" />
        </mxCell>
        <mxCell id="hx7XMOlVAWknz2wz_Oiw-34" value="добавление и/или удаление разделов" style="ellipse;whiteSpace=wrap;html=1;fontSize=14;fontStyle=1;labelBorderColor=none;labelBackgroundColor=none;" vertex="1" parent="1">
          <mxGeometry x="590" y="210" width="260" height="70" as="geometry" />
        </mxCell>
        <mxCell id="hx7XMOlVAWknz2wz_Oiw-35" value="добавление и/или удаление &lt;br&gt;товаров" style="ellipse;whiteSpace=wrap;html=1;fontSize=14;fontStyle=1;labelBorderColor=none;labelBackgroundColor=none;" vertex="1" parent="1">
          <mxGeometry x="590" y="300" width="260" height="70" as="geometry" />
        </mxCell>
      </root>
    </mxGraphModel>
  </diagram>
</mxfile>
